<svg xmlns="http://www.w3.org/2000/svg" version="1.1" xmlns:xlink="http://www.w3.org/1999/xlink" xmlns:svgjs="http://svgjs.dev/svgjs" width="713.28" height="1014.87"><svg id="SvgjsSvg1030" data-name="Layer 1" xmlns="http://www.w3.org/2000/svg" viewBox="0 0 713.28 1014.87">
  <defs>
    <style>
      .cls-1 {
        fill: #29b6f6;
        stroke-width: 0px;
      }
    </style>
  </defs>
  <path class="cls-1" d="m0,67.88C-.38,24.24,18.76,3.04,62.49,2.53,165.74,1.31,268.99-.18,372.23.02c81.05.15,156.09,22.43,221.23,71.57,90.38,68.19,126.95,161.75,118.68,272.47-8,107.04-61.91,188.68-153.2,242.75-60.17,35.63-128.49,45.22-198.29,43.71-35.12-.76-70.46-1.46-105.39,1.44-42.65,3.54-71.06,38.05-70.81,80.92.23,39.95.03,79.91.78,119.85.88,46.88-15,84.61-55.06,111.56-27.48,18.48-53.56,39.05-80.29,58.66-2.26,1.66-4.61,3.22-7.05,4.61-26.45,15.15-41.38,6.65-41.43-23.93-.15-91.72-.09-183.43-.14-275.15-.02-29.82,1.62-59.78-.68-89.43-2.39-30.78,9.64-53.02,32.1-71.96,73.29-61.79,153.92-112.85,236.5-160.86,28.48-16.56,43.73-6.73,45.57,26.16.74,13.17,1.29,26.36,2.16,39.52.19,2.96.64,6.54,5.21,6.02,35.66-.03,71.63,1.31,107.54-5.39,62.66-16.02,106.1-68.82,107.67-131.49,1.57-63.09-41.12-120.64-103.76-139.92-21.63-6.66-43.73-10.24-66.38-10.07-43.31.31-86.65-.07-129.93,1.34-37.96,1.24-56.56,20.99-56.69,59.35-.08,24.99,1.11,50.07,3.4,74.95,1.82,19.73-7.06,31.33-22.89,40.97C112.86,377,7.94,449.1,1.97,453.13,1.66,445.97.54,128.65,0,67.88Z"></path>
</svg><style>@media (prefers-color-scheme: light) { :root { filter: none; } }
@media (prefers-color-scheme: dark) { :root { filter: none; } }
</style></svg>