<?xml version="1.0" encoding="UTF-8"?>
<svg id="Layer_1" data-name="Layer 1" xmlns="http://www.w3.org/2000/svg" xmlns:xlink="http://www.w3.org/1999/xlink" viewBox="0 0 284.58 330.51">
  <defs>
    <style>
      .cls-1 {
        fill: none;
      }

      .cls-1, .cls-2 {
        stroke-width: 0px;
      }

      .cls-3 {
        clip-path: url(#clippath);
      }

      .cls-2 {
        fill: #05b2dc;
      }
    </style>
    <clipPath id="clippath">
      <path class="cls-1" d="m53.78,217.57c-5.07-5.08-15.5-15.52-16.17-29.75-1.31-27.9,36.62-32.28,49.16-68.57,11.17-32.3-12.31-47.8,1.94-80.86C96.25,20.91,113.71.08,130.76,1.52c20.08,1.7,18.94,32.45,46.57,49.81,36.51,22.94,76.67-6.76,90.56,11,12.66,16.17-20.24,41.37-29.75,97.67-10.74,63.52,21.22,90.17-1.3,128.08-12.26,20.66-38.22,40.48-58.86,35.57-30.46-7.23-21.14-61.59-63.39-82.79-22.59-11.35-41.38-3.83-60.81-23.29Zm204.84,43.77c5.12,0,9.27,4.15,9.27,9.27s-4.15,9.27-9.27,9.27-9.27-4.15-9.27-9.27,4.15-9.27,9.27-9.27Zm-108.24,53.91c2.98,0,5.39,3.09,5.39,6.9s-2.41,6.9-5.39,6.9-5.39-3.09-5.39-6.9,2.41-6.9,5.39-6.9Zm-19.62-14.67c5.48,0,9.92,2.9,9.92,6.47s-4.44,6.47-9.92,6.47-9.92-2.9-9.92-6.47,4.44-6.47,9.92-6.47ZM64.35,38.83c5.24,0,9.49,5.02,9.49,11.21s-4.25,11.21-9.49,11.21-9.49-5.02-9.49-11.21,4.25-11.21,9.49-11.21Zm12.94-13.38c1.91,0,3.45,1.54,3.45,3.45s-1.54,3.45-3.45,3.45-3.45-1.54-3.45-3.45,1.54-3.45,3.45-3.45Z"/>
    </clipPath>
  </defs>
  <path class="cls-2" d="m115.23,280.32c-61.72-10.81-77.21,0-95.73-17.47C5.5,249.64-.87,229.11.09,212.45c.6-10.42,8.61-26.5,24.59-58.22,11.41-22.66,16-29.64,14.87-41.4-1.61-17.67-13.86-23.77-10.35-31,5.24-10.85,39.32-11.4,64.69,3.88,20.45,12.32,18.68,25,33.63,38.81,41.51,38.44,109.33-8.65,142.31,25.23,18,18.51,19,54.35,5.82,72.45-11.06,15.23-25.55,8.87-53,29.11-23.77,17.5-21.4,28.5-38.81,36.22s-27.65-.08-68.61-7.21Z"/>
  <g class="cls-3">
    <image width="960" height="1280" transform="translate(26.44) scale(.26)" xlink:href="hero.jpg"/>
  </g>
</svg>