<?xml version="1.0" encoding="UTF-8"?>
<svg id="Layer_1" data-name="Layer 1" xmlns="http://www.w3.org/2000/svg" viewBox="0 0 46.38 38.91">
  <defs>
    <style>
      .cls-1 {
        fill: #69b5d7;
      }

      .cls-1, .cls-2 {
        stroke-width: 0px;
      }

      .cls-3 {
        fill: none;
        stroke: #1c448e;
        stroke-linecap: round;
        stroke-linejoin: round;
        stroke-width: 2px;
      }

      .cls-2 {
        fill: #6ab6d8;
      }
    </style>
  </defs>
  <g>
    <path class="cls-2" d="m20.39,4.44c-.44.75-.86,1.48-1.29,2.21-1.42,2.42-2.83,4.85-4.25,7.27-.12.2-.22.42-.34.62-.11.2-.24.27-.47.14-2.24-1.3-4.49-2.59-6.73-3.88-.41-.24-.4-.28-.16-.71.92-1.61,1.82-3.22,2.75-4.82.56-.97,1.04-1.98,1.67-2.91C12.55.96,13.88.16,15.61.05c1.23-.08,2.45-.04,3.68-.01,1.69.04,3.38-.01,5.07-.03,2.47-.03,4.2,1.18,5.33,3.31.7,1.31,1.48,2.57,2.21,3.86.25.44.24.45.69.23.56-.28,1.11-.56,1.67-.84.16-.08.35-.2.51-.04.15.15.06.34-.02.51-.98,2.08-1.96,4.16-2.93,6.25-.15.31-.26.64-.42.94-.24.47-.77.72-1.28.61-2.5-.53-5.03-.86-7.53-1.41-.17-.04-.37-.07-.4-.27-.03-.22.16-.31.33-.39.64-.31,1.27-.63,1.91-.94.12-.06.23-.09.12-.27-1.38-2.35-2.76-4.71-4.15-7.1Z"/>
    <path class="cls-1" d="m6.49,28.29c1.65,0,3.3,0,4.96,0,1.5,0,2.99,0,4.49-.02.99-.01,1.98-.08,2.97-.06.39,0,.44.04.42.43-.11,1.99-.17,3.98-.12,5.97.02.63.08,1.27.07,1.9,0,.38-.04.43-.43.43-2.4,0-4.8,0-7.2,0-.78,0-1.57.06-2.35.01-1.72-.11-3.11-.81-4.11-2.21-.99-1.39-1.8-2.9-2.67-4.37-.62-1.05-1.21-2.11-1.81-3.16-1.1-1.92-.84-3.77.25-5.58.76-1.26,1.51-2.53,2.27-3.79.15-.25.17-.38-.13-.53-.57-.28-1.1-.63-1.68-.89-.09-.04-.17-.1-.24-.16-.21-.19-.18-.4.09-.49.29-.09.61-.13.91-.2,2.06-.46,4.17-.72,6.22-1.2.78-.18,1.35.11,1.67.84.91,2.07,1.82,4.15,2.67,6.26.1.26.23.51.34.77.06.15.11.32-.03.45-.14.12-.29.04-.42-.03-.62-.33-1.23-.66-1.84-1-.19-.11-.27-.09-.38.11-1.17,2.04-2.35,4.08-3.48,6.15-.1.18-.18.4-.43.4Z"/>
  </g>
  <g>
    <path class="cls-3" d="m33.68,27.38h-8.19c-1.29,0-2.34,1.05-2.34,2.34v5.85"/>
    <circle class="cls-3" cx="34.85" cy="35.57" r="2.34"/>
    <circle class="cls-3" cx="25.5" cy="35.57" r="2.34"/>
    <path class="cls-3" d="m29,35.57h3.51m5.85-19.88v19.88h7.02m-18.71-8.19v-5.85c0-1.29,1.05-2.34,2.34-2.34h3.51l5.85,5.85"/>
  </g>
</svg>