<?xml version="1.0" encoding="UTF-8"?>
<svg id="Layer_1" data-name="Layer 1" xmlns="http://www.w3.org/2000/svg" xmlns:xlink="http://www.w3.org/1999/xlink" viewBox="0 0 960 1280">
  <defs>
    <style>
      .cls-1 {
        fill: none;
        stroke-width: 0px;
      }

      .cls-2 {
        clip-path: url(#clippath);
      }
    </style>
    <clipPath id="clippath">
      <path class="cls-1" d="m582.22,267.47c-32.03-54.54-63.86-109.2-96.14-164.52-10.15,17.45-19.96,34.4-29.83,51.3-32.79,56.15-65.6,112.27-98.37,168.43-2.76,4.73-5.18,9.66-7.82,14.46-2.55,4.63-5.62,6.24-10.89,3.19-51.95-30.08-104.03-59.92-155.99-89.98-9.61-5.56-9.32-6.52-3.7-16.34,21.28-37.19,42.05-74.67,63.61-111.69,13.03-22.38,24.03-45.94,38.71-67.34C304.33,22.13,335.21,3.75,375.3,1.1c28.4-1.88,56.75-.91,85.15-.25,39.13.92,78.26-.25,117.4-.8,57.26-.79,97.23,27.31,123.5,76.67,16.16,30.37,34.19,59.64,51.21,89.51,5.83,10.23,5.64,10.37,15.94,5.24,12.93-6.44,25.83-12.96,38.77-19.38,3.77-1.87,8.01-4.66,11.73-.98,3.59,3.55,1.3,7.86-.52,11.73-22.65,48.23-45.32,96.46-67.91,144.72-3.37,7.2-5.94,14.8-9.62,21.83-5.65,10.79-17.87,16.67-29.6,14.17-57.88-12.33-116.64-19.92-174.43-32.66-3.84-.85-8.58-1.57-9.24-6.3-.7-5.07,3.65-7.08,7.54-8.99,14.74-7.25,29.47-14.53,44.21-21.79,2.73-1.34,5.34-1.99,2.79-6.34Zm-130.69,386.14c-22.94-.43-45.84,1.11-68.75,1.44-34.65.51-69.32.36-103.98.41-38.27.05-76.54.01-114.81.01,5.96.05,7.76-4.98,10.03-9.15,26.06-47.92,53.45-95.08,80.53-142.42,2.67-4.67,4.57-5.03,8.91-2.57,14.09,7.96,28.37,15.6,42.62,23.27,3.07,1.65,6.59,3.53,9.75.76,3.34-2.92,2.29-6.86.81-10.39-2.51-5.96-5.46-11.74-7.87-17.75-19.54-48.77-40.56-96.9-61.75-144.97-7.54-17.1-20.7-23.78-38.72-19.56-47.71,11.16-96.38,17.33-144.2,27.89-7.03,1.55-14.27,2.38-21.09,4.55-6.29,2-6.91,6.85-2.03,11.34,1.62,1.49,3.56,2.78,5.56,3.7,13.37,6.14,25.72,14.23,38.9,20.67,6.97,3.41,6.6,6.51,3.08,12.3-17.73,29.15-35.04,58.56-52.63,87.79-25.33,42.07-31.35,84.95-5.89,129.32,14,24.4,27.66,49.01,41.99,73.22,20.16,34.06,38.8,69.1,61.81,101.35,23.12,32.42,55.43,48.79,95.21,51.25,18.22,1.12,36.34-.4,54.51-.32,55.57.24,111.14.08,166.71.01,8.97-.01,9.71-1.03,9.86-9.92.24-14.72-1.13-29.38-1.52-44.06-1.22-46.11.19-92.18,2.69-138.23.49-9.07-.71-9.78-9.71-9.95Zm497.92-132.55c-10.86-23.76-24.41-46.18-37.74-68.65-23.23-39.16-46.83-78.11-70.1-117.25-5.25-8.84-6.79-9.55-15.67-4.34-23.18,13.59-46.4,27.14-69.58,40.74-25.76,15.11-51.47,30.3-77.25,45.36-4.51,2.64-6.86,5.8-4.15,10.94,7.79,14.75,15.33,29.65,23.52,44.18,32.75,58.09,69.37,113.91,101.16,172.57,1.92,3.54,3.44,7.86,8.56,8.47-36.34,1.47-72.46-.03-108.58,1.79-23.13,1.17-46.37.07-69.55.36-5.56.07-6.88-1.63-7.31-7.15-1.42-18.41-1.21-36.82-1.26-55.24-.01-4.64-1.34-8.57-6.08-10.04-4.63-1.44-6.52,2.32-8.62,5.41-18.02,26.55-36.14,53.05-54.07,79.66-15.16,22.49-30.16,45.08-45.14,67.69-10.16,15.34-9.81,24.94.85,39.59,9.35,12.87,18.6,25.81,27.75,38.83,23.74,33.77,47.36,67.62,71.14,101.36,2.56,3.63,5.64,7.76,10.96,5.89,4.93-1.73,5-6.49,4.62-10.75-1.43-16.13.26-32.25-.03-48.37-.09-4.73,1.2-6.93,6.27-6.53,11.21.87,22.35-1.15,33.54-1.2,30.17-.13,60.34.17,90.51-.28,12.46-.19,24.61-3.07,36.07-8.27,25.64-11.62,44.56-30.68,58.77-54.45,20.94-35.02,41.87-70.05,61.39-105.91,12.25-22.51,26.15-44.11,37.25-67.26,15.34-31.98,17.64-64.57,2.75-97.16Z"/>
    </clipPath>
  </defs>
  <g class="cls-2">
    <image width="960" height="1280" xlink:href="hero.jpg"/>
  </g>
</svg>