<?xml version="1.0" encoding="UTF-8"?>
<svg id="Layer_1" data-name="Layer 1" xmlns="http://www.w3.org/2000/svg" viewBox="0 0 107.46 107.46">
  <defs>
    <style>
      .cls-1 {
        fill: #ecebf3;
        font-family: UDDigiKyokashoN-Bold, 'UD Digi Kyokasho N';
        font-size: 51.45px;
        font-weight: 700;
      }

      .cls-2 {
        fill: #434f52;
      }

      .cls-2, .cls-3, .cls-4, .cls-5 {
        stroke-width: 0px;
      }

      .cls-3 {
        fill: #1c448e;
      }

      .cls-4 {
        fill: #05b2dc;
      }

      .cls-5 {
        fill: #ebeef0;
      }
    </style>
  </defs>
  <g>
    <path class="cls-5" d="m64.04,44.94c-1.76-5.1-3.54-10.2-5.29-15.31-1.34-3.92-2.65-7.85-3.97-11.78,12.57,0,25.14.26,37.71,0,7.19,0,14.96,3.69,14.96,9.44v70.73c0,6.13-4.47,9.44-9.44,9.44h-36.93c.38-.29,11.02-12.2,15.96-17.87,1.01-1.32,1.48-2.27.93-3.87-1.34-3.63-2.5-7.33-3.73-11,1.54-1.21,2.95-2.56,4.37-4,.32.34.6.65.89.95,2.69,2.75,5.42,5.45,8.24,8.07.68.63,1.42,1.03,2.37.76,1.77-.5,2.23-2.56.82-3.9-2.94-2.79-5.85-5.62-8.68-8.52-.54-.55-.6-.87-.11-1.52,3.93-5.09,7.31-10.48,9.15-16.71.16-.53.46-.61.92-.6,1.26.02,2.52.03,3.78,0,1.54-.04,2.47-.92,2.46-2.27-.01-1.35-.95-2.18-2.5-2.23-.28,0-.56,0-.84,0-4.51,0-9.02-.02-13.53.02-.85,0-1.11-.25-1.02-1.06.05-.45.04-.91,0-1.36-.12-1.2-1.09-2.07-2.25-2.06-1.16.01-2.09.91-2.17,2.12-.03.49-.06.98,0,1.47.07.7-.22.89-.9.88-3.18-.03-6.36,0-9.54-.02-.56,0-1.12.03-1.66.18Z"/>
    <path class="cls-2" d="m64.03,44.93c.54-.15,1.1-.18,1.66-.18,3.18,0,6.36-.01,9.54.02.68,0,.97-.18.9-.88-.05-.48-.03-.98,0-1.47.09-1.21,1.01-2.11,2.17-2.12,1.16-.01,2.13.86,2.25,2.06.04.45.06.91,0,1.36-.1.81.17,1.07,1.02,1.06,4.51-.04,9.02-.02,13.53-.02.28,0,.56,0,.84,0,1.56.05,2.49.88,2.5,2.23.01,1.35-.92,2.23-2.46,2.27-1.26.03-2.52.02-3.77,0-.47,0-.77.07-.92.6-1.84,6.23-5.23,11.62-9.15,16.71-.5.64-.43.97.11,1.52,2.84,2.9,5.74,5.73,8.68,8.52,1.41,1.34.95,3.41-.82,3.9-.95.27-1.69-.13-2.37-.76-2.82-2.61-5.56-5.31-8.24-8.07-.29-.3-.57-.61-.89-.95-1.42,1.44-2.83,2.78-4.37,4-.61-1.49-1.13-3.01-1.58-4.56.82-.55,1.43-1.33,2.19-1.95.65-.53.67-.9.09-1.56-1.95-2.2-3.83-4.46-5.13-7.12-.72-1.46-.37-2.72.85-3.33,1.23-.61,2.44-.1,3.15,1.34,1.11,2.25,2.75,4.12,4.33,6.03.29.35.47.38.78-.02,3.12-4.11,5.79-8.47,7.63-13.31.28-.75.23-1.01-.68-1-6.78.04-13.56.02-20.35.03-.58-1.42-1.08-2.87-1.48-4.34Z"/>
    <path class="cls-3" d="m58.09,105.36c-1.92-5.25-3.89-10.49-5.85-15.74,7.54,0,15.08-.02,22.63,0,.72,0,2.17-.04,2.17-.04,0,0-15.58,17.57-15.96,17.87-1.85-.08-2.64-1.16-2.98-2.1Z"/>
    <path class="cls-5" d="m65.52,49.28c6.78,0,13.56,0,20.35-.03.91,0,.97.25.68,1-1.84,4.84-4.52,9.2-7.63,13.31-.3.4-.49.37-.78.02-1.59-1.91-3.22-3.77-4.33-6.03-.71-1.44-1.92-1.96-3.15-1.34-1.23.61-1.57,1.87-.85,3.33,1.31,2.66,3.19,4.92,5.13,7.12.58.66.56,1.02-.09,1.56-.75.62-1.37,1.4-2.19,1.95-2.11-6.14-4.22-12.27-6.33-18.41-.28-.82-.54-1.65-.8-2.48Z"/>
    <g>
      <path class="cls-4" d="m0,79.75V9.65C0,6.23,3.25,0,9.65,0h37.98c1.7,0,1.9,1.39,2.59,3.62,0,0,26.57,78.93,27.73,82.1.59,1.61.19,2.43-.93,3.87-.74.03-1.42.04-2.17.04-7.54-.02-15.08-.01-22.63,0-.49-.02-.98-.06-1.46-.06-13.01,0-26.01,0-39.02,0-4.48,0-11.75-3.32-11.75-9.81Zm44.73-19.55c-.04-.15-.1-.49-.22-.82-.63-1.81-1.28-3.62-1.93-5.42-2.98-8.34-5.96-16.69-8.95-25.03-.5-1.39-1.3-1.98-2.54-1.87-1.23.11-1.76.95-2.14,2.01-2.65,7.46-5.32,14.92-7.98,22.38-.95,2.66-1.93,5.31-2.85,7.99-.63,1.85.71,3.48,2.51,3.1,1-.21,1.47-.95,1.79-1.86,1.24-3.52,2.51-7.03,3.75-10.55.19-.54.37-.88,1.06-.87,2.73.05,5.45.03,8.18,0,.55,0,.81.18.97.7.42,1.29.9,2.57,1.36,3.85.88,2.46,1.75,4.93,2.66,7.38.42,1.11,1.43,1.65,2.49,1.45,1.11-.21,1.82-1.1,1.8-2.43Z"/>
      <path class="cls-4" d="m44.73,60.2c.02,1.33-.7,2.22-1.8,2.43-1.06.21-2.07-.34-2.49-1.45-.92-2.45-1.78-4.92-2.66-7.38-.46-1.28-.94-2.56-1.36-3.85-.17-.52-.43-.7-.97-.7-2.73.03-5.45.04-8.18,0-.69-.01-.87.33-1.06.87-1.24,3.52-2.51,7.03-3.75,10.55-.32.91-.79,1.65-1.79,1.86-1.8.38-3.15-1.25-2.51-3.1.91-2.67,1.9-5.32,2.85-7.99,2.66-7.46,5.33-14.92,7.98-22.38.38-1.06.91-1.9,2.14-2.01,1.24-.11,2.04.47,2.54,1.87,2.99,8.34,5.97,16.69,8.95,25.03.65,1.81,1.29,3.61,1.93,5.42.11.33.18.67.22.82Zm-13.4-24.43c-1.07,3-2.05,5.75-3.03,8.5-.19.53.2.48.51.48,1.68,0,3.35,0,5.03,0,.43,0,.68-.09.5-.6-.98-2.71-1.94-5.42-3.01-8.39Z"/>
      <path class="cls-4" d="m31.34,35.77c1.06,2.97,2.03,5.68,3.01,8.39.18.51-.06.61-.5.6-1.68,0-3.35,0-5.03,0-.31,0-.69.05-.51-.48.98-2.75,1.96-5.5,3.03-8.5Z"/>
    </g>
  </g>
  <text class="cls-1" transform="translate(16.75 64.48) scale(1.16 1)"><tspan x="0" y="0">P</tspan></text>
</svg>